Coordinates
nRows=198
nColumns=2
inDegrees=yes
endheader
time	ankle_angle_r	
1.87488	  0.289915	
1.93738	  0.185698	
1.99987	  0.165334	
2.06237	  0.138457	
2.12486	  0.142558	
2.18736	  0.197011	
2.24986	  0.208187	
2.31235	  0.211063	
2.37485	  0.203101	
2.43734	  0.148256	
2.49984	  0.120068	
2.56234	  0.135667	
2.62483	  0.201272	
2.68733	  0.278894	
2.74982	  0.275207	
2.81232	  0.251946	
2.87482	  0.241415	
2.93731	  0.214101	
2.99981	  0.225189	
3.0623	  0.245450	
3.1248	  0.259179	
3.1873	  0.302219	
3.24979	  0.306899	
3.31229	  0.271862	
3.37478	  0.234129	
3.43728	  0.184228	
3.49978	  0.162021	
3.56227	  0.147616	
3.62477	  0.134078	
3.68726	  0.175020	
3.74976	  0.194865	
3.81226	  0.163063	
3.87475	  0.160350	
3.93725	  0.162691	
3.99974	  0.161458	
4.06224	  0.177029	
4.12474	  0.177477	
4.18723	  0.211036	
4.24973	  0.269225	
4.31222	  0.290122	
4.37472	  0.304032	
4.43722	  0.283348	
4.49971	  0.242911	
4.56221	  0.238839	
4.6247	  0.228314	
4.6872	  0.256847	
4.7497	  0.307836	
4.81219	  0.274388	
4.87469	  0.233834	
4.93718	  0.200003	
4.99968	  0.139426	
5.06218	  0.137012	
5.12467	  0.154350	
5.18717	  0.165458	
5.24966	  0.200570	
5.31216	  0.199838	
5.37466	  0.185855	
5.43715	  0.173606	
5.49965	  0.142550	
5.56214	  0.158928	
5.62464	  0.195547	
5.68714	  0.209179	
5.74963	  0.245730	
5.81213	  0.282960	
5.87462	  0.311066	
5.93712	  0.333966	
5.99962	  0.298999	
6.06211	  0.257198	
6.12461	  0.247635	
6.1871	  0.212770	
6.2496	  0.204498	
6.3121	  0.235934	
6.37459	  0.240671	
6.43709	  0.236310	
6.49958	  0.194750	
6.56208	  0.147861	
6.62458	  0.160382	
6.68707	  0.141942	
6.74957	  0.130155	
6.81206	  0.183942	
6.87456	  0.198643	
6.93706	  0.191927	
6.99955	  0.193377	
7.06205	  0.174923	
7.12454	  0.180568	
7.18704	  0.202722	
7.24954	  0.246580	
7.31203	  0.305265	
7.37453	  0.291343	
7.43702	  0.269715	
7.49952	  0.299492	
7.56202	  0.264620	
7.62451	  0.199867	
7.68701	  0.206058	
7.7495	  0.208813	
7.812	  0.193980	
7.8745	  0.214389	
7.93699	  0.235340	
7.99949	  0.221023	
8.06198	  0.170217	
8.12448	  0.137317	
8.18698	  0.140161	
8.24947	  0.123716	
8.31197	  0.136556	
8.37446	  0.188076	
8.43696	  0.205371	
8.49946	  0.226628	
8.56195	  0.233743	
8.62445	  0.193062	
8.68694	  0.184948	
8.74944	  0.206879	
8.81194	  0.247626	
8.87443	  0.298590	
8.93693	  0.300137	
8.99942	  0.304777	
9.06192	  0.309829	
9.12442	  0.251572	
9.18691	  0.197493	
9.24941	  0.177129	
9.3119	  0.184866	
9.3744	  0.221879	
9.4369	  0.210522	
9.49939	  0.171147	
9.56189	  0.174246	
9.62438	  0.166528	
9.68688	  0.145095	
9.74938	  0.139787	
9.81187	  0.134675	
9.87437	  0.168791	
9.93686	  0.207580	
9.99936	  0.210885	
10.0619	  0.252297	
10.1244	  0.276808	
10.1868	  0.233336	
10.2493	  0.215694	
10.3118	  0.225927	
10.3743	  0.256080	
10.4368	  0.306524	
10.4993	  0.312008	
10.5618	  0.298353	
10.6243	  0.277005	
10.6868	  0.223628	
10.7493	  0.181718	
10.8118	  0.150205	
10.8743	  0.166236	
10.9368	  0.236066	
10.9993	  0.232139	
11.0618	  0.181310	
11.1243	  0.163546	
11.1868	  0.138544	
11.2493	  0.133486	
11.3118	  0.140815	
11.3743	  0.121618	
11.4368	  0.154692	
11.4993	  0.217931	
11.5618	  0.250788	
11.6243	  0.287015	
11.6868	  0.261927	
11.7492	  0.202312	
11.8117	  0.217045	
11.8742	  0.222646	
11.9367	  0.227237	
11.9992	  0.290699	
12.0617	  0.318449	
12.1242	  0.316455	
12.1867	  0.299288	
12.2492	  0.244976	
12.3117	  0.228854	
12.3742	  0.238487	
12.4367	  0.255409	
12.4992	  0.300680	
12.5617	  0.310387	
12.6242	  0.301533	
12.6867	  0.294517	
12.7492	  0.257016	
12.8117	  0.247794	
12.8742	  0.257836	
12.9367	  0.253561	
12.9992	  0.266854	
13.0617	  0.239411	
13.1242	  0.183419	
13.1867	  0.186475	
13.2492	  0.179853	
13.3116	  0.139877	
13.3741	  0.130629	
13.4366	  0.129906	
13.4991	  0.160748	
13.5616	  0.211010	
13.6241	  0.208266	
13.6866	  0.214066	
13.7491	  0.228100	
13.8116	  0.214674	
13.8741	  0.229915	
13.9366	  0.226494	
13.9991	  0.216890	
14.0616	  0.273958	
14.1241	  0.313031	
14.1866	  0.289755	
